<?xml version="1.0" encoding="utf-8"?>
<!-- Generator: Adobe Illustrator 18.1.1, SVG Export Plug-In . SVG Version: 6.00 Build 0)  -->
<!DOCTYPE svg PUBLIC "-//W3C//DTD SVG 1.1//EN" "http://www.w3.org/Graphics/SVG/1.1/DTD/svg11.dtd">
<svg version="1.1" id="Layer_1" xmlns="http://www.w3.org/2000/svg" xmlns:xlink="http://www.w3.org/1999/xlink" x="0px" y="0px"
	 viewBox="-183 140 232.5 22" enable-background="new -183 140 232.5 22" xml:space="preserve">
<g>
	<path fill="#2C81C4" d="M-40.3,145.7c-0.3-1.5-0.6-2.3-1-2.8c-0.5-0.7-1-0.9-3.3-0.9h-2v14.9c0,2.4,0.2,2.7,3.1,2.9v0.9h-9v-0.9
		c2.7-0.2,3-0.5,3-2.9v-15h-1.7c-2.5,0-3.1,0.3-3.5,0.9c-0.4,0.5-0.7,1.4-1,2.8h-0.9c0.1-1.9,0.3-3.9,0.4-5.6h0.6
		c0.4,0.7,0.8,0.8,1.7,0.8H-42c0.8,0,1.1-0.2,1.6-0.8h0.7c0,1.4,0.2,3.7,0.3,5.5L-40.3,145.7L-40.3,145.7z"/>
	<path fill="#2C81C4" d="M-34.2,150.1c0,5.6,3,9.9,7.2,9.9c3.3,0,6.2-2.8,6.2-8.7c0-6.4-3.2-9.8-7.1-9.8
		C-31.3,141.5-34.2,144.5-34.2,150.1L-34.2,150.1z M-17.4,150.5c0,6.6-4.6,10.6-10.2,10.6c-5.6,0-10-4.3-10-10.2
		c0-5.4,3.8-10.6,10.3-10.6C-22,140.4-17.4,144.4-17.4,150.5L-17.4,150.5z"/>
	<path fill="#2C81C4" d="M-10.7,156.6c0,2.3,0.9,2.9,3.1,2.9c5.4,0,8.1-4.1,8.1-9.1c0-3.1-1.1-5.8-3.4-7.2c-1.3-0.9-3.1-1.4-5.1-1.4
		c-1.3,0-2,0.2-2.3,0.4s-0.4,0.6-0.4,1.7L-10.7,156.6L-10.7,156.6z M-7.5,140.8c3.9,0,6.7,0.8,8.7,2.6c1.5,1.4,2.6,3.7,2.6,6.5
		c0,3.7-1.4,6.4-3.8,8.1c-2.3,1.7-5.4,2.5-9.1,2.5h-7.3v-0.9c2.6-0.2,2.8-0.4,2.8-3v-11.9c0-2.6-0.2-2.7-2.6-2.9v-1H-7.5L-7.5,140.8
		z"/>
	<path fill="#2C81C4" d="M12.5,144.7L12.5,144.7c-1,2.5-2,5.1-2.9,7.6h5.5L12.5,144.7L12.5,144.7z M15.4,160.7v-0.9
		c1.9-0.2,2.1-0.5,1.7-1.7c-0.4-1.2-0.9-2.7-1.6-4.5H9.1c-0.5,1.3-0.9,2.6-1.3,3.8c-0.6,1.9-0.4,2.2,1.9,2.4v0.9H3v-0.9
		c2-0.3,2.4-0.5,3.4-3.2l6.3-15.9l1.1-0.3c1.9,5.2,3.9,11,5.9,16.3c0.9,2.6,1.4,2.9,3.4,3.1v0.9H15.4L15.4,160.7z"/>
	<path fill="#2C81C4" d="M40.3,141.7c-2.1,0.2-2.5,0.6-3.6,2.4c-1.3,2.2-2.3,3.8-3.8,6.6c-0.4,0.8-0.5,1.2-0.5,2v4.1
		c0,2.6,0.2,2.8,3,3v0.9h-8.8v-0.9c2.7-0.2,3-0.4,3-3v-3.9c0-0.6-0.1-0.9-0.6-1.8c-1-1.8-2.1-3.8-3.8-6.7c-1.2-2.1-1.6-2.4-3.4-2.6
		v-1h7.6v0.9c-2.2,0.3-2.1,0.6-1.5,1.7c1.3,2.4,2.7,4.9,4,7.1c1.1-2,2.7-4.9,3.5-6.8c0.7-1.5,0.6-1.7-1.8-2v-0.9h6.8L40.3,141.7
		L40.3,141.7z"/>
	<path fill="#1E2A5C" d="M-149.6,155.4c-0.2,1.1-0.8,3.9-1,4.9h-15v-0.9c2.7-0.2,3-0.5,3-3v-12c0-2.7-0.6-2.8-2.9-3.1v-0.8h14.1
		c0,0.7,0.2,2.8,0.3,4.4l-1,0.1c-0.3-1.3-0.6-2-1-2.6c-0.5-0.7-1.3-0.9-3.4-0.9h-2.2c-1,0-1.1,0.1-1.1,1v6.9h2.8
		c2.7,0,2.9-0.2,3.3-2.3h0.9v5.9h-0.9c-0.4-2.2-0.6-2.3-3.3-2.3h-2.7v5.6c0,1.4,0.2,2.1,0.7,2.5c0.6,0.4,1.6,0.4,3.1,0.4
		c2.2,0,3.1-0.2,3.8-1c0.5-0.6,1.1-1.7,1.6-2.9L-149.6,155.4L-149.6,155.4z"/>
	<path fill="#1E2A5C" d="M-143.5,156.2c0,2.3,0.9,2.9,3.1,2.9c5.4,0,8.1-4.1,8.1-9.1c0-3.1-1.1-5.8-3.4-7.2c-1.3-0.8-3-1.3-5.1-1.3
		c-1.3,0-2,0.2-2.3,0.4c-0.3,0.2-0.4,0.6-0.4,1.7V156.2L-143.5,156.2z M-140.3,140.5c3.9,0,6.7,0.8,8.7,2.6c1.5,1.4,2.6,3.6,2.6,6.5
		c0,3.7-1.4,6.4-3.8,8.1c-2.3,1.7-5.4,2.5-9.1,2.5h-7.3v-0.9c2.6-0.2,2.8-0.4,2.8-3v-12c0-2.6-0.2-2.7-2.6-2.9v-0.9H-140.3
		L-140.3,140.5z"/>
	<path fill="#1E2A5C" d="M-123.4,150.7c0.4,0.2,1.2,0.3,2.1,0.3c1.8,0,4.2-1,4.2-4.9c0-3.3-2-4.7-4.5-4.7c-0.8,0-1.4,0.2-1.6,0.4
		c-0.2,0.2-0.3,0.5-0.3,1.3L-123.4,150.7L-123.4,150.7z M-121,140.5c2.2,0,3.9,0.4,5.2,1.3c1.3,0.9,2,2.3,2,4.3c0,4-3,5.9-6,6.3
		c-0.5,0.1-1,0.1-1.3,0l-2.2-0.6v4.7c0,2.6,0.2,2.7,3,2.9v0.9h-8.5v-0.9c2.4-0.2,2.7-0.4,2.7-3v-12.1c0-2.7-0.3-2.8-2.5-3v-0.8H-121
		L-121,140.5z"/>
	<path fill="#1E2A5C" d="M-106.9,144.3L-106.9,144.3c-1,2.5-2,5.1-2.9,7.6h5.5L-106.9,144.3L-106.9,144.3z M-104,160.3v-0.9
		c1.9-0.2,2.1-0.5,1.7-1.7s-0.9-2.7-1.6-4.5h-6.4c-0.5,1.3-0.9,2.6-1.3,3.8c-0.6,1.9-0.4,2.2,1.9,2.4v0.9h-6.7v-0.9
		c2-0.3,2.4-0.5,3.4-3.2l6.3-15.9l1.2-0.3c1.9,5.2,3.9,11,5.9,16.3c0.9,2.6,1.4,2.9,3.4,3.1v0.9H-104L-104,160.3z"/>
	<path fill="#1E2A5C" d="M-77.5,151.9c-1.8,0.3-1.9,0.4-1.9,2.3v2.6c0,1.1,0,2,0.2,2.9c-1.9,0.5-4.4,1.1-6.8,1.1
		c-6.8,0-11.3-4.1-11.3-10.2c0-7,5.7-10.5,11.7-10.5c2.6,0,4.9,0.7,5.9,0.9c0.1,1,0.2,2.7,0.5,4.8l-0.9,0.2c-0.7-3.7-3-4.8-5.9-4.8
		c-4.5,0-7.8,3.4-7.8,9c0,4.5,2.5,9.5,8.3,9.5c0.9,0,1.9-0.2,2.5-0.5s0.9-0.7,0.9-1.9v-2.7c0-2.2-0.2-2.4-3.2-2.6v-1h8v0.9H-77.5z"
		/>
	<g>
		<g>
			<defs>
				<rect id="SVGID_1_" x="-183" y="140" width="231" height="21.1"/>
			</defs>
			<clipPath id="SVGID_2_">
				<use xlink:href="#SVGID_1_"  overflow="visible"/>
			</clipPath>
			<path clip-path="url(#SVGID_2_)" fill="#1E2A5C" d="M-60.8,155.4c-0.2,1.1-0.8,3.9-1,4.9h-14.9v-0.9c2.7-0.2,3-0.5,3-3v-12
				c0-2.7-0.3-2.8-2.6-3.1v-0.8h13.7c0,0.7,0.2,2.8,0.3,4.4l-0.9,0.1c-0.3-1.3-0.6-2-1-2.6c-0.5-0.7-1.3-0.9-3.4-0.9h-2.2
				c-1,0-1.1,0.1-1.1,1v6.9h2.7c2.7,0,2.9-0.2,3.3-2.3h0.9v5.9h-0.9c-0.4-2.2-0.6-2.3-3.3-2.3h-2.7v5.6c0,1.4,0.2,2.1,0.7,2.5
				c0.6,0.4,1.6,0.4,3.1,0.4c2.2,0,3.1-0.2,3.8-1c0.5-0.6,1.1-1.7,1.6-2.9L-60.8,155.4L-60.8,155.4z"/>
		</g>
		<g>
			<defs>
				<rect id="SVGID_3_" x="-183" y="140" width="231" height="21.1"/>
			</defs>
			<clipPath id="SVGID_4_">
				<use xlink:href="#SVGID_3_"  overflow="visible"/>
			</clipPath>
			<path clip-path="url(#SVGID_4_)" fill="#1E2A5C" d="M-170.1,156.1l-6.7-15.6h-5.3v0.9c2.7,0.3,2.9,0.5,2.7,4.3l-0.5,6.3
				c-0.2,3.2-0.4,4.6-0.6,5.6c-0.2,1.3-0.8,1.6-2.6,1.8v0.9h7.1v-0.9c-2-0.2-2.7-0.4-2.8-1.9c0-1.2,0-2.5,0.1-5l0.4-8.5h0.1
				l6.7,16.1h0.6l8.5-16.9v-2.7L-170.1,156.1L-170.1,156.1z"/>
		</g>
	</g>
	<path fill="#1E2A5C" d="M-163.5,142.9c0,0,0.8-1.6-2.2-1.6h4.7L-163.5,142.9L-163.5,142.9z"/>
	<path fill="#2C81C4" d="M45.5,142.7h0.4c0.3,0,0.6,0,0.6-0.4c0-0.3-0.3-0.4-0.5-0.4h-0.5V142.7L45.5,142.7z M45.1,141.6h1
		c0.6,0,0.9,0.2,0.9,0.7c0,0.4-0.3,0.6-0.6,0.7l0.7,1.1h-0.4l-0.8-1.1h-0.4v1h-0.4V141.6L45.1,141.6z M45.9,144.6
		c1,0,1.7-0.8,1.7-1.8s-0.8-1.8-1.7-1.8c-1,0-1.7,0.8-1.7,1.8S44.9,144.6,45.9,144.6L45.9,144.6z M45.9,140.7c1.1,0,2.1,0.9,2.1,2.1
		s-1,2.1-2.1,2.1c-1.2,0-2.1-0.9-2.1-2.1C43.8,141.6,44.7,140.7,45.9,140.7L45.9,140.7z"/>
	<path fill="#2C81C4" d="M45.5,142.7h0.4c0.3,0,0.6,0,0.6-0.4c0-0.3-0.3-0.4-0.5-0.4h-0.5V142.7L45.5,142.7z M45.1,141.6h1
		c0.6,0,0.9,0.2,0.9,0.7c0,0.4-0.3,0.6-0.6,0.7l0.7,1.1h-0.4l-0.8-1.1h-0.4v1h-0.4V141.6L45.1,141.6z M45.9,144.6
		c1,0,1.7-0.8,1.7-1.8s-0.8-1.8-1.7-1.8c-1,0-1.7,0.8-1.7,1.8S44.9,144.6,45.9,144.6L45.9,144.6z M45.9,140.7c1.1,0,2.1,0.9,2.1,2.1
		s-1,2.1-2.1,2.1c-1.2,0-2.1-0.9-2.1-2.1C43.8,141.6,44.7,140.7,45.9,140.7L45.9,140.7z"/>
</g>
</svg>
